<?xml version="1.0" standalone="no"?>
<!DOCTYPE svg PUBLIC "-//W3C//DTD SVG 20010904//EN"
 "http://www.w3.org/TR/2001/REC-SVG-20010904/DTD/svg10.dtd">
<svg version="1.0" xmlns="http://www.w3.org/2000/svg"
 width="180.000000pt" height="50.000000pt" viewBox="0 0 1280.000000 356.000000"
 preserveAspectRatio="xMidYMid meet">
<metadata>
Created by potrace 1.16, written by Peter Selinger 2001-2019
</metadata>
<g transform="translate(0.000000,356.000000) scale(0.100000,-0.100000)"
fill="#000000" stroke="none">
<path d="M1970 3549 c-104 -7 -205 -27 -302 -60 -100 -33 -178 -71 -171 -82 3
-6 1 -7 -5 -3 -6 4 -24 -1 -39 -10 -77 -47 -113 -72 -161 -112 -46 -38 -51
-46 -40 -61 11 -14 11 -14 -3 -4 -13 10 -22 6 -56 -30 -22 -23 -55 -62 -74
-87 l-34 -46 -45 9 c-55 10 -164 2 -241 -18 -109 -29 -268 -116 -261 -144 1
-7 -2 -10 -7 -7 -13 9 -104 -93 -97 -109 3 -8 0 -14 -6 -12 -6 1 -25 -29 -42
-68 -28 -64 -31 -80 -32 -184 l-1 -115 -59 -46 c-76 -60 -137 -128 -128 -142
4 -6 3 -8 -3 -5 -14 9 -37 -19 -27 -34 4 -7 3 -9 -4 -6 -15 10 -66 -86 -97
-183 -35 -113 -37 -269 -5 -375 40 -126 122 -273 149 -267 7 1 10 -2 6 -8 -9
-14 14 -42 28 -33 5 3 7 1 4 -4 -15 -23 168 -164 268 -207 22 -10 48 -22 57
-27 10 -5 50 -18 90 -30 73 -21 317 -36 603 -38 l101 -1 -7 86 c-4 47 -8 87
-10 88 -2 2 -132 8 -289 14 -305 12 -341 18 -453 71 -37 18 -69 32 -71 32 -21
1 -152 136 -196 201 -179 269 -100 601 187 778 91 56 104 81 78 152 -24 67
-16 185 16 248 28 54 114 141 157 159 18 7 29 18 25 24 -3 5 -2 7 4 4 5 -3 31
0 58 8 58 18 174 19 260 3 88 -16 113 -3 165 79 22 35 40 66 40 68 0 3 32 36
71 74 67 66 209 171 230 171 6 0 8 4 5 8 -2 4 3 8 12 9 9 1 60 17 113 36 165
60 345 75 532 42 99 -17 236 -65 315 -111 23 -14 47 -22 54 -18 6 4 8 3 4 -4
-3 -6 8 -21 26 -33 18 -13 39 -28 46 -34 30 -24 108 -109 143 -155 20 -27 40
-46 44 -42 5 4 5 1 1 -6 -4 -7 1 -28 13 -47 31 -53 68 -165 76 -229 9 -73 35
-100 107 -115 264 -56 467 -208 561 -421 48 -107 50 -120 50 -255 1 -109 -5
-175 -14 -175 -9 0 -29 -72 -22 -83 3 -6 2 -7 -3 -4 -5 3 -23 -20 -39 -51 -57
-110 -260 -286 -365 -317 -14 -4 -38 -13 -55 -20 -60 -27 -140 -35 -339 -35
l-203 0 -7 -61 c-3 -34 -6 -77 -6 -96 l0 -35 228 4 c188 4 242 8 312 26 200
50 361 142 494 282 77 82 140 175 130 192 -4 6 -3 8 3 5 5 -3 19 14 31 38 57
117 86 319 63 437 -21 106 -43 178 -54 171 -6 -3 -7 -1 -3 5 7 12 -36 102 -83
171 -42 62 -143 164 -221 220 -68 51 -190 117 -190 104 0 -5 -4 -3 -8 3 -9 15
-139 57 -155 51 -8 -3 -14 5 -15 22 -5 67 -72 237 -87 223 -5 -4 -5 -2 -1 5 8
15 -28 76 -39 65 -5 -4 -5 -2 -2 4 10 17 -68 117 -154 200 -81 78 -195 157
-212 147 -5 -3 -7 -2 -4 4 4 6 -28 26 -71 46 -202 95 -407 132 -642 116z"/>
<path d="M12310 2693 l0 -388 -42 44 c-92 95 -259 145 -411 123 -272 -40 -457
-272 -457 -572 0 -266 144 -480 369 -551 92 -28 242 -29 330 -1 76 25 145 70
186 123 17 21 33 38 38 39 4 0 7 -36 7 -80 l0 -80 130 0 130 0 0 865 0 865
-140 0 -140 0 0 -387z m-175 -491 c68 -33 127 -92 159 -161 30 -66 30 -216 0
-282 -31 -67 -87 -124 -152 -156 -49 -24 -69 -28 -142 -28 -51 0 -99 6 -120
14 -240 98 -282 439 -72 585 60 41 108 55 192 56 62 0 85 -5 135 -28z"/>
<path d="M5990 2979 c-62 -25 -100 -85 -100 -157 0 -93 68 -155 170 -155 154
0 228 155 129 268 -44 50 -134 70 -199 44z"/>
<path d="M9605 2977 c-79 -36 -121 -130 -90 -203 31 -76 80 -107 167 -107 101
0 168 65 168 163 0 87 -62 149 -157 156 -37 3 -69 -1 -88 -9z"/>
<path d="M4458 2974 c-5 -4 -8 -371 -8 -816 l0 -808 313 0 c171 0 353 5 402
10 229 27 375 114 448 268 30 63 32 74 32 177 0 103 -2 114 -32 177 -52 111
-167 201 -275 216 -21 2 -38 7 -38 11 0 3 21 14 48 23 108 39 201 143 223 247
38 184 -44 358 -205 436 -111 53 -144 57 -536 62 -201 3 -368 2 -372 -3z m636
-254 c88 -14 142 -44 172 -96 23 -39 26 -53 22 -112 -8 -155 -103 -201 -410
-202 l-138 0 0 210 0 210 148 0 c81 0 173 -4 206 -10z m43 -661 c157 -22 223
-86 223 -219 -1 -119 -50 -184 -171 -221 -51 -16 -92 -19 -255 -19 l-194 0 0
235 0 235 159 0 c88 0 195 -5 238 -11z"/>
<path d="M7440 2165 l0 -815 135 0 135 0 0 678 c0 382 4 670 9 662 5 -8 77
-202 160 -430 84 -228 193 -527 243 -663 l91 -248 100 3 100 3 148 405 c82
223 192 525 246 672 l98 267 3 -674 2 -675 140 0 140 0 -2 813 -3 812 -216 3
-216 2 -122 -317 c-67 -175 -166 -432 -219 -570 -53 -139 -99 -249 -103 -245
-3 4 -99 252 -213 552 -113 300 -210 552 -215 560 -7 12 -45 15 -225 18 l-216
2 0 -815z"/>
<path d="M6610 2610 l0 -160 -115 0 -115 0 0 -115 0 -115 114 0 114 0 4 -327
c5 -375 10 -400 81 -477 60 -66 128 -88 272 -89 74 0 129 6 168 17 l57 17 0
114 0 114 -35 -15 c-45 -18 -167 -18 -204 1 -16 8 -37 31 -47 52 -16 34 -18
66 -19 313 l0 275 153 3 152 3 0 114 0 115 -154 0 -153 0 -1 28 c0 15 0 87 -1
160 l-1 132 -135 0 -135 0 0 -160z"/>
<path d="M10621 2464 c-30 -8 -69 -23 -86 -34 -33 -21 -97 -86 -127 -130 -17
-24 -17 -23 -17 63 l-1 87 -130 0 -130 0 0 -550 0 -550 134 0 134 0 4 343 c3
334 4 343 27 395 26 59 85 115 138 133 19 6 65 9 102 7 84 -4 120 -28 158
-106 l28 -57 3 -357 3 -358 135 0 135 0 -3 418 c-4 464 -4 469 -74 565 -86
119 -271 175 -433 131z"/>
<path d="M5920 1900 l0 -550 140 0 140 0 0 550 0 550 -140 0 -140 0 0 -550z"/>
<path d="M9540 1900 l0 -550 135 0 135 0 0 550 0 550 -135 0 -135 0 0 -550z"/>
<path d="M5301 897 c-58 -21 -75 -56 -79 -157 l-4 -89 -41 -3 c-33 -2 -41 -7
-43 -25 -4 -21 0 -23 41 -23 l45 0 0 -175 0 -175 25 0 25 0 0 175 0 175 50 0
c47 0 50 2 50 25 0 23 -3 25 -50 25 l-50 0 0 48 c1 61 15 131 29 145 6 6 29
12 51 12 30 0 42 4 46 18 3 10 4 20 2 23 -12 11 -67 12 -97 1z"/>
<path d="M8260 744 l0 -155 -32 25 c-148 111 -352 -1 -335 -183 7 -78 43 -132
110 -166 81 -40 174 -29 234 27 l23 21 0 -31 c0 -29 3 -32 30 -32 l30 0 0 325
0 325 -30 0 -30 0 0 -156z m-85 -154 c109 -53 113 -218 7 -278 -107 -60 -222
3 -229 127 -8 130 106 207 222 151z"/>
<path d="M4327 856 c-51 -19 -76 -42 -99 -95 -15 -32 -18 -54 -13 -86 11 -77
51 -110 187 -154 82 -27 118 -64 118 -120 0 -67 -53 -111 -132 -111 -43 0
-101 27 -124 58 -10 14 -14 13 -37 -5 l-27 -21 26 -25 c82 -82 243 -80 321 5
28 31 47 98 39 141 -13 68 -60 106 -180 143 -82 26 -126 68 -126 121 0 99 147
146 226 72 l24 -23 23 23 22 22 -28 24 c-50 44 -146 57 -220 31z"/>
<path d="M7727 853 c-4 -3 -7 -141 -7 -305 l0 -298 30 0 30 0 0 305 0 305 -23
0 c-13 0 -27 -3 -30 -7z"/>
<path d="M9947 854 c-4 -4 -7 -142 -7 -306 l0 -298 30 0 30 0 0 145 0 145 165
0 165 0 0 -145 0 -145 30 0 30 0 0 306 0 305 -27 -3 -28 -3 -3 -132 -3 -133
-164 0 -164 0 -3 133 c-3 124 -4 132 -23 135 -12 2 -24 0 -28 -4z"/>
<path d="M5460 705 l0 -55 -40 0 c-36 0 -40 -2 -40 -25 0 -22 4 -25 40 -25
l40 0 0 -127 c0 -189 19 -233 100 -233 59 0 80 10 80 36 0 22 -3 23 -43 18
-71 -10 -77 2 -77 167 l0 139 55 0 c52 0 55 1 55 25 0 24 -3 25 -55 25 l-55 0
0 55 c0 54 0 55 -30 55 -30 0 -30 -1 -30 -55z"/>
<path d="M4784 635 c-74 -37 -105 -86 -111 -172 -4 -58 -1 -75 19 -113 14 -26
43 -58 69 -75 39 -27 52 -30 119 -30 65 0 80 4 115 27 22 15 51 44 65 65 21
31 25 48 25 113 0 67 -3 82 -28 117 -36 52 -94 84 -165 90 -48 4 -66 0 -108
-22z m160 -39 c74 -31 109 -148 69 -226 -56 -107 -210 -107 -266 0 -24 46 -19
139 9 178 42 56 120 76 188 48z"/>
<path d="M6400 651 c-38 -12 -90 -41 -90 -50 0 -5 7 -14 15 -21 12 -10 23 -8
60 10 87 42 175 12 178 -61 l2 -34 -80 -6 c-92 -6 -143 -25 -173 -64 -53 -66
-4 -170 85 -182 62 -8 109 4 141 37 l30 29 6 -29 c4 -23 11 -30 29 -30 l23 0
-4 158 c-4 177 -13 205 -72 234 -36 18 -106 22 -150 9z m170 -226 c0 -42 -29
-100 -59 -118 -66 -39 -161 -7 -161 53 0 33 32 68 70 76 14 3 30 7 35 9 6 2
34 4 63 4 49 1 52 0 52 -24z"/>
<path d="M6874 646 c-17 -8 -40 -27 -52 -42 l-21 -29 -1 38 c0 33 -3 37 -25
37 l-25 0 0 -200 0 -200 30 0 30 0 0 130 c0 174 17 209 109 220 41 4 46 8 49
33 3 25 1 27 -30 27 -18 -1 -47 -7 -64 -14z"/>
<path d="M7105 641 c-75 -35 -115 -102 -115 -193 1 -131 97 -218 225 -205 50
5 124 41 140 68 4 6 0 18 -9 27 -13 14 -19 14 -34 4 -84 -60 -135 -68 -193
-29 -34 22 -83 102 -73 118 3 5 79 9 170 9 163 0 164 0 164 23 0 141 -148 237
-275 178z m146 -46 c32 -17 69 -69 69 -97 0 -16 -13 -18 -135 -18 -150 0 -155
3 -116 66 35 57 121 80 182 49z"/>
<path d="M8520 633 c-179 -94 -126 -369 75 -390 64 -7 115 9 161 49 34 30 34
31 14 45 -19 13 -24 12 -57 -13 -91 -69 -217 -24 -239 85 l-6 31 167 0 168 0
-5 50 c-6 59 -44 122 -89 146 -17 8 -54 18 -83 21 -43 4 -60 0 -106 -24z m155
-37 c35 -15 65 -59 65 -96 0 -19 -6 -20 -135 -20 -150 0 -152 1 -112 61 41 62
113 83 182 55z"/>
<path d="M8990 651 c-40 -13 -90 -41 -90 -50 0 -5 7 -14 15 -21 12 -10 23 -8
58 9 78 38 149 24 173 -35 23 -55 14 -64 -58 -64 -86 0 -136 -16 -175 -55 -70
-70 -27 -178 77 -192 59 -8 103 4 138 38 l31 30 3 -28 c2 -21 9 -29 28 -31
l25 -3 -3 153 c-4 166 -14 206 -56 233 -29 19 -128 29 -166 16z m170 -226 c0
-42 -29 -100 -59 -118 -66 -39 -161 -7 -161 53 0 33 32 68 70 76 14 3 30 7 35
9 6 2 34 4 63 4 49 1 52 0 52 -24z"/>
<path d="M9385 641 c-44 -20 -65 -53 -65 -104 0 -60 35 -86 157 -117 50 -13
73 -33 73 -65 0 -62 -111 -88 -170 -39 -27 23 -34 25 -57 15 l-26 -12 24 -26
c32 -34 79 -53 134 -53 88 0 143 40 152 109 9 69 -27 105 -132 130 -70 17 -95
36 -95 70 0 32 13 46 53 56 36 9 72 0 96 -26 16 -18 22 -19 40 -7 26 16 27 30
4 50 -46 39 -126 48 -188 19z"/>
<path d="M10599 644 c-58 -18 -79 -39 -57 -60 13 -13 20 -12 59 5 85 39 160
19 178 -46 6 -20 8 -40 5 -45 -3 -4 -33 -8 -67 -8 -85 0 -135 -16 -174 -55
-79 -79 -15 -195 107 -195 47 0 73 11 113 48 l27 26 0 -32 c0 -28 3 -32 28
-32 l27 0 -5 162 c-6 185 -13 205 -81 232 -48 19 -98 19 -160 0z m191 -211 c0
-42 -23 -94 -51 -117 -61 -52 -169 -23 -169 45 0 34 28 66 67 75 16 3 33 7 38
9 6 2 34 4 63 4 43 1 52 -2 52 -16z"/>
<path d="M11107 645 c-22 -7 -50 -23 -63 -36 l-24 -22 0 31 c0 29 -3 32 -30
32 l-30 0 0 -325 0 -325 30 0 30 0 0 157 0 156 23 -21 c75 -71 214 -66 287 9
154 161 -14 419 -223 344z m144 -56 c74 -37 101 -145 56 -223 -78 -136 -287
-78 -287 79 0 69 26 115 80 143 55 27 99 28 151 1z"/>
<path d="M11615 641 c-22 -10 -46 -25 -54 -34 -20 -25 -31 -21 -31 13 0 25 -4
30 -25 30 l-25 0 0 -325 0 -325 25 0 25 0 0 155 c0 138 7 183 23 141 3 -7 26
-24 52 -36 98 -48 224 -6 273 90 44 87 21 210 -49 262 -68 50 -145 61 -214 29z
m145 -49 c53 -26 80 -74 80 -141 0 -66 -23 -111 -72 -141 -86 -52 -215 6 -234
105 -25 133 107 237 226 177z"/>
<path d="M12095 641 c-95 -43 -142 -149 -112 -252 19 -63 54 -104 111 -130 77
-35 179 -16 234 44 l24 25 -21 11 c-17 10 -27 6 -62 -19 -91 -65 -207 -20
-234 93 l-7 27 166 0 166 0 0 38 c0 43 -28 109 -56 134 -54 48 -141 60 -209
29z m139 -45 c41 -17 66 -51 66 -88 l0 -28 -136 0 -135 0 6 23 c11 37 40 71
76 89 41 22 78 23 123 4z"/>
<path d="M12590 644 c-19 -8 -45 -25 -57 -36 l-23 -21 0 31 c0 29 -3 32 -31
32 -30 0 -31 -2 -25 -31 3 -17 6 -107 6 -200 l0 -169 25 0 25 0 0 123 c0 143
17 194 71 222 41 22 104 15 133 -14 19 -20 21 -35 24 -176 l3 -155 31 0 30 0
-4 158 c-4 180 -14 210 -80 237 -48 19 -83 19 -128 -1z"/>
<path d="M5655 633 c4 -10 32 -100 63 -200 l57 -183 32 0 32 0 54 168 54 167
54 -167 54 -168 32 0 c24 0 33 5 38 23 4 12 31 99 61 192 30 94 54 174 54 178
0 5 -14 7 -31 5 l-31 -3 -44 -154 c-23 -84 -45 -155 -47 -158 -3 -2 -29 68
-58 157 l-54 161 -29 -3 c-29 -3 -31 -7 -79 -153 -26 -82 -51 -153 -55 -157
-4 -4 -27 65 -51 152 l-45 160 -34 0 c-28 0 -33 -3 -27 -17z"/>
</g>
</svg>
