<?xml version="1.0" standalone="no"?>
<!DOCTYPE svg PUBLIC "-//W3C//DTD SVG 20010904//EN"
 "http://www.w3.org/TR/2001/REC-SVG-20010904/DTD/svg10.dtd">
<svg version="1.0" xmlns="http://www.w3.org/2000/svg"
 width="250.000000pt" height="250.000000pt" viewBox="0 0 777.000000 777.000000"
 preserveAspectRatio="xMidYMid meet">
<metadata>
Created by potrace 1.16, written by Peter Selinger 2001-2019
</metadata>
<g transform="translate(0.000000,777.000000) scale(0.100000,-0.100000)"
fill="#000000" stroke="none">
<path d="M4069 7256 c-2 -3 -43 -5 -89 -6 -47 -1 -110 -5 -140 -10 -360 -58
-380 -63 -540 -117 -91 -30 -176 -61 -190 -68 -14 -7 -70 -35 -125 -62 -58
-29 -99 -54 -97 -62 1 -7 -2 -10 -7 -7 -13 9 -138 -61 -145 -81 -4 -9 -9 -13
-12 -10 -4 3 -11 2 -18 -3 -6 -6 -43 -33 -83 -63 -95 -69 -244 -207 -237 -219
3 -4 1 -7 -4 -6 -11 3 -86 -80 -142 -156 -61 -82 -97 -125 -103 -120 -16 17
-275 28 -362 16 -167 -24 -316 -67 -440 -128 -145 -71 -178 -92 -169 -106 4
-6 3 -8 -3 -5 -14 9 -95 -52 -86 -65 4 -7 1 -8 -6 -3 -12 7 -39 -19 -148 -136
-18 -19 -56 -76 -86 -127 -64 -108 -96 -193 -132 -347 -19 -82 -15 -228 11
-345 4 -21 -2 -30 -36 -55 -23 -17 -51 -38 -61 -47 -10 -10 -20 -17 -21 -17
-5 3 -72 -56 -152 -133 -72 -69 -78 -78 -66 -95 12 -15 12 -16 0 -6 -11 10
-20 6 -45 -20 -18 -19 -45 -53 -61 -77 -16 -24 -37 -55 -46 -69 -17 -25 -88
-169 -120 -241 -24 -53 -70 -231 -84 -325 -9 -58 -5 -283 5 -322 6 -21 18 -76
26 -123 41 -215 154 -441 322 -643 66 -78 229 -231 298 -277 20 -14 57 -40 81
-58 25 -18 72 -46 104 -61 33 -16 74 -38 93 -50 32 -20 247 -101 277 -105 9
-1 20 -5 26 -8 18 -12 187 -38 309 -47 66 -5 264 -12 440 -15 176 -4 392 -9
479 -13 l159 -6 -6 74 c-9 117 -28 284 -33 289 -3 2 -242 10 -532 16 -532 13
-606 18 -716 56 -34 11 -65 21 -71 22 -5 1 -16 5 -22 9 -7 5 -17 5 -23 2 -5
-3 -10 -2 -10 3 0 5 -21 17 -47 27 -27 10 -57 24 -69 32 -11 7 -24 10 -29 6
-4 -5 -5 -3 -1 4 3 7 -2 14 -13 18 -25 8 -132 77 -173 112 -211 181 -329 348
-408 575 -93 269 -76 530 54 798 94 193 280 377 516 509 90 50 121 120 94 212
-48 166 -55 269 -29 392 14 67 68 187 107 237 91 118 238 227 362 268 45 15
83 29 86 32 3 3 14 6 25 6 11 1 44 7 74 13 63 13 209 14 266 1 22 -5 69 -16
105 -25 74 -19 153 -21 192 -6 37 14 103 81 127 130 25 48 137 204 177 248 72
76 99 108 97 115 -2 5 0 7 5 5 4 -1 25 13 47 30 112 91 155 123 205 154 30 18
57 36 60 40 9 12 263 136 305 149 22 6 68 23 102 36 170 66 550 109 788 89
143 -11 384 -56 443 -81 20 -9 69 -26 107 -39 39 -12 97 -35 130 -51 33 -15
63 -27 68 -26 4 1 7 -3 7 -9 0 -5 5 -7 10 -4 6 3 10 3 10 -2 0 -4 13 -14 29
-21 38 -17 220 -138 252 -168 14 -13 29 -24 33 -24 4 0 19 -14 33 -31 15 -17
32 -28 40 -25 8 3 12 2 9 -3 -3 -4 20 -35 52 -68 87 -91 149 -170 195 -248 23
-38 45 -72 49 -75 4 -3 17 -28 29 -55 12 -28 32 -73 44 -100 43 -97 87 -257
100 -370 4 -43 32 -105 58 -133 33 -36 70 -52 158 -67 101 -18 211 -45 224
-55 6 -5 48 -22 93 -39 129 -47 311 -156 418 -250 22 -20 51 -45 65 -57 30
-26 100 -108 141 -166 17 -24 34 -45 38 -48 4 -3 22 -32 41 -65 18 -33 35 -62
38 -65 12 -10 61 -128 91 -215 34 -99 60 -259 60 -375 0 -245 -104 -546 -257
-745 -59 -76 -189 -213 -247 -259 -20 -15 -33 -33 -29 -39 3 -6 1 -7 -5 -3 -6
3 -41 -14 -77 -39 -150 -102 -343 -185 -575 -246 -29 -8 -192 -14 -460 -18
l-415 -6 -11 -140 c-7 -77 -14 -156 -15 -175 l-4 -35 435 0 c409 0 442 1 552
23 100 19 160 36 248 69 8 3 24 8 35 10 35 6 139 46 165 63 14 9 59 32 100 52
159 74 339 206 488 358 122 124 278 338 317 435 9 22 27 63 40 90 37 81 66
167 61 182 -3 7 -2 13 3 13 9 0 51 197 57 267 22 262 -25 536 -134 775 -27 59
-53 104 -57 100 -5 -4 -5 -1 -1 6 5 8 2 21 -7 30 -8 9 -33 47 -55 84 -57 96
-156 214 -272 326 -105 102 -256 215 -274 205 -6 -3 -8 -3 -4 2 12 12 -197
135 -230 135 -7 0 -12 4 -12 9 0 5 -42 23 -92 41 -51 19 -104 38 -118 43 -38
15 -40 16 -112 35 -65 16 -68 18 -74 52 -3 19 -8 42 -11 50 -3 8 -8 23 -10 33
-11 57 -99 285 -139 362 -60 114 -171 285 -190 292 -8 3 -14 11 -14 18 0 15
-97 122 -200 221 -61 59 -78 70 -89 61 -12 -9 -13 -9 -7 1 11 18 -15 45 -89
95 -33 22 -62 44 -65 48 -12 18 -126 79 -138 74 -7 -2 -11 -1 -7 4 3 5 -12 20
-32 33 -61 37 -254 129 -277 131 -12 1 -23 5 -26 8 -11 14 -252 89 -346 108
-134 27 -302 51 -399 57 -44 2 -101 6 -126 9 -25 3 -47 3 -50 1z"/>
<path d="M3845 5759 c-308 -32 -541 -307 -522 -614 7 -109 30 -179 90 -270 66
-102 170 -191 273 -235 l44 -19 0 -2071 c0 -1714 2 -2076 13 -2103 21 -48 88
-104 135 -112 89 -15 177 46 201 140 8 31 11 633 11 2097 l0 2054 37 13 c56
21 163 100 224 166 39 43 67 88 99 160 44 100 45 100 44 215 0 111 -1 119 -39
207 -69 166 -191 283 -355 341 -93 32 -163 41 -255 31z m113 -388 c48 -14 112
-69 133 -115 79 -174 -104 -337 -280 -249 -46 22 -57 34 -78 80 -43 94 -18
197 60 249 64 42 107 51 165 35z"/>
<path d="M2129 5089 c-88 -20 -188 -77 -257 -146 -81 -80 -104 -116 -138 -215
-35 -103 -35 -220 0 -318 36 -99 52 -127 110 -192 118 -135 302 -202 486 -179
90 12 125 24 203 68 32 18 63 33 67 33 5 0 28 -34 52 -77 23 -42 63 -111 88
-154 25 -43 65 -113 89 -156 24 -43 50 -85 56 -93 7 -8 32 -51 55 -95 24 -44
49 -87 55 -95 7 -8 22 -34 34 -57 12 -24 39 -71 61 -104 l40 -62 0 -686 c0
-633 1 -689 18 -721 26 -52 74 -80 138 -80 69 0 117 23 143 70 21 37 21 43 21
771 l0 734 -36 65 c-20 36 -55 99 -77 140 -22 41 -48 86 -57 100 -9 14 -24 39
-32 55 -8 17 -45 84 -83 150 -37 66 -84 149 -103 185 -19 36 -42 76 -50 90 -9
14 -37 63 -63 110 -25 47 -68 126 -96 175 -46 82 -51 99 -62 193 -20 170 -59
254 -169 358 -56 54 -171 117 -244 134 -51 11 -199 11 -249 -1z m197 -370 c17
-5 44 -23 59 -40 81 -92 67 -203 -35 -274 -34 -24 -53 -29 -99 -30 -48 0 -63
5 -104 34 -56 38 -77 79 -77 146 0 61 21 107 62 138 56 43 112 51 194 26z"/>
<path d="M5825 4523 c-142 -30 -298 -152 -359 -282 l-30 -61 -75 0 c-118 0
-280 -18 -367 -41 -90 -24 -229 -98 -313 -167 -115 -95 -219 -244 -265 -378
-52 -153 -51 -137 -51 -1349 l0 -1130 24 -42 c29 -51 71 -73 138 -73 59 0 102
24 134 76 l24 39 5 1145 5 1145 22 59 c49 130 145 232 283 301 103 52 169 65
326 65 l110 0 24 -57 c15 -37 47 -81 92 -129 132 -139 321 -200 500 -163 81
17 192 72 253 126 61 53 134 160 160 238 25 71 25 231 1 310 -49 163 -209 317
-372 360 -54 14 -219 19 -269 8z m180 -349 c63 -18 118 -72 134 -131 23 -86
-33 -182 -122 -208 -114 -34 -219 28 -240 142 -10 51 18 128 57 158 26 19 87
49 114 54 2 1 28 -6 57 -15z"/>
</g>
</svg>
